<?xml version="1.0" standalone="no"?>
<!DOCTYPE svg PUBLIC "-//W3C//DTD SVG 20010904//EN"
 "http://www.w3.org/TR/2001/REC-SVG-20010904/DTD/svg10.dtd">
<svg version="1.0" xmlns="http://www.w3.org/2000/svg"
 width="1501.000000pt" height="1501.000000pt" viewBox="0 0 1501.000000 1501.000000"
 preserveAspectRatio="xMidYMid meet">
<metadata>
Created by potrace 1.14, written by Peter Selinger 2001-2017
</metadata>
<g transform="translate(0.000000,1501.000000) scale(0.100000,-0.100000)"
fill="#000000" stroke="none">
<path d="M7376 14678 c-153 -18 -211 -40 -618 -236 -145 -71 -281 -136 -453
-217 -105 -50 -244 -116 -440 -210 -77 -37 -189 -91 -250 -120 -60 -29 -168
-81 -240 -115 -71 -34 -173 -83 -225 -107 -130 -62 -279 -133 -445 -213 -275
-132 -350 -168 -372 -174 -13 -4 -23 -12 -23 -17 0 -5 -7 -9 -15 -9 -8 0 -55
-20 -104 -45 -49 -25 -94 -45 -100 -45 -6 0 -11 -4 -11 -10 0 -5 -3 -9 -7 -8
-11 2 -33 -8 -248 -112 -104 -51 -221 -107 -260 -125 -80 -38 -264 -125 -445
-213 -69 -33 -159 -76 -200 -95 -66 -31 -160 -76 -462 -221 -41 -20 -80 -36
-87 -36 -6 0 -11 -4 -11 -10 0 -5 -5 -10 -11 -10 -6 0 -80 -34 -166 -75 -85
-41 -157 -75 -160 -75 -9 0 -135 -81 -168 -107 -50 -41 -121 -110 -146 -143
-13 -17 -34 -43 -47 -58 -28 -34 -94 -160 -121 -232 -17 -47 -58 -203 -75
-290 -2 -14 -16 -74 -30 -135 -62 -261 -91 -389 -102 -445 -3 -13 -14 -63 -25
-110 -11 -47 -22 -92 -24 -100 -2 -8 -12 -54 -24 -102 -11 -48 -22 -98 -25
-110 -2 -13 -23 -104 -46 -203 -23 -99 -43 -187 -45 -195 -74 -325 -119 -521
-135 -585 -24 -102 -40 -173 -46 -205 -3 -14 -14 -59 -24 -100 -10 -41 -21
-86 -24 -100 -2 -14 -36 -164 -75 -334 -39 -169 -73 -318 -75 -330 -6 -24 -72
-312 -116 -496 -16 -69 -31 -136 -34 -150 -2 -14 -18 -83 -35 -155 -18 -71
-34 -146 -37 -165 -3 -19 -8 -37 -9 -41 -2 -3 -29 -117 -60 -255 -31 -137 -62
-274 -70 -304 -8 -30 -25 -104 -39 -165 -75 -322 -96 -414 -100 -441 -3 -16
-8 -40 -12 -54 -12 -53 -11 -238 1 -310 36 -207 103 -347 259 -540 33 -41 63
-77 66 -80 3 -3 21 -25 40 -50 19 -25 40 -52 47 -60 7 -8 56 -69 109 -135 53
-66 110 -138 128 -160 49 -60 249 -308 258 -320 4 -5 20 -26 36 -45 16 -19 75
-93 133 -165 103 -129 120 -150 149 -185 8 -9 26 -32 40 -50 14 -18 33 -42 44
-54 10 -11 30 -37 45 -56 14 -19 32 -41 39 -48 7 -8 25 -30 40 -50 15 -21 29
-39 32 -42 4 -3 33 -39 65 -80 33 -41 62 -77 65 -80 3 -3 41 -50 84 -105 44
-55 85 -107 93 -115 16 -19 70 -85 103 -129 14 -18 30 -38 35 -44 14 -16 183
-225 220 -273 17 -21 38 -46 48 -56 9 -10 17 -22 17 -27 0 -5 3 -11 8 -13 4
-1 109 -129 232 -283 123 -154 230 -287 237 -295 16 -19 155 -193 197 -245 17
-21 43 -53 57 -70 14 -16 153 -190 310 -385 156 -195 286 -357 289 -360 3 -3
47 -57 97 -120 146 -183 246 -272 388 -343 65 -32 185 -74 265 -93 19 -5 1342
-9 2940 -11 2970 -2 2934 -2 3075 31 86 20 208 76 300 138 101 67 164 131 320
328 77 96 142 177 145 180 3 3 78 95 165 205 88 110 163 202 166 205 3 3 86
106 185 230 223 280 207 260 219 274 6 6 35 43 65 81 30 39 57 72 60 75 3 3
116 142 250 310 135 168 249 310 255 317 5 6 22 27 36 45 65 81 301 375 315
391 8 10 68 85 133 166 141 178 132 166 173 216 19 22 60 74 93 115 33 41 67
84 77 95 9 11 74 92 144 180 71 88 204 255 297 370 93 116 183 228 201 249 17
22 45 56 61 76 17 20 44 54 60 75 17 21 35 43 40 49 31 34 252 314 282 358
103 152 163 352 163 543 0 97 -11 161 -85 475 -31 129 -57 247 -60 262 -2 15
-9 46 -16 70 -7 24 -13 52 -15 63 -1 11 -17 81 -34 155 -38 162 -70 300 -110
475 -54 238 -140 608 -169 735 -50 213 -103 443 -112 485 -5 22 -33 146 -64
275 -30 129 -57 244 -59 255 -4 30 -37 167 -43 185 -3 8 -7 24 -8 35 -2 17
-40 184 -221 965 -13 58 -46 202 -74 320 -27 118 -86 372 -130 564 -44 192
-87 368 -94 391 -22 63 -73 170 -103 218 -114 175 -242 283 -453 384 -58 28
-163 79 -235 113 -130 62 -236 113 -435 207 -58 28 -166 80 -240 115 -74 36
-166 80 -205 98 -38 18 -157 75 -263 126 -107 52 -195 94 -197 94 -1 0 -81 38
-176 84 -167 80 -231 110 -474 226 -60 29 -159 76 -220 105 -60 29 -157 76
-215 103 -58 27 -163 78 -235 112 -71 34 -170 81 -220 105 -49 23 -153 73
-230 110 -77 37 -183 87 -235 112 -52 25 -151 73 -220 106 -69 32 -167 79
-217 103 -51 24 -135 64 -185 88 -51 24 -156 74 -233 111 -234 112 -519 248
-590 281 -48 22 -115 44 -115 37 0 -3 -6 -1 -12 5 -34 27 -246 44 -372 30z
m194 -1874 c91 -15 179 -93 209 -186 16 -50 14 -264 -3 -345 -8 -34 -12 -55
-21 -113 -4 -25 -9 -52 -10 -61 -25 -134 -39 -417 -22 -438 9 -12 9 -13 0 -7
-10 5 -12 -5 -8 -44 6 -60 34 -123 72 -165 32 -34 30 -29 32 -94 0 -28 7 -56
15 -64 9 -8 46 -17 88 -21 143 -14 437 -70 608 -117 174 -48 415 -136 585
-214 121 -55 185 -88 343 -177 169 -94 467 -307 608 -433 75 -67 112 -102 187
-174 l87 -85 58 41 c45 32 64 39 88 36 46 -7 137 14 171 40 141 104 283 238
466 440 103 113 217 209 284 239 73 32 172 30 243 -6 106 -53 157 -132 160
-246 2 -57 -4 -79 -38 -149 -33 -65 -181 -180 -357 -276 -173 -93 -312 -185
-440 -289 -89 -72 -112 -107 -122 -184 -5 -41 -12 -52 -54 -87 -26 -22 -48
-47 -48 -55 -1 -8 35 -73 80 -145 144 -233 284 -531 374 -800 20 -60 39 -117
42 -125 3 -8 7 -22 8 -30 1 -8 11 -49 23 -90 25 -89 58 -237 67 -300 3 -25 8
-52 10 -60 7 -23 14 -69 20 -133 4 -32 8 -67 10 -79 3 -11 7 -66 11 -122 3
-58 11 -104 18 -108 6 -4 7 -8 1 -8 -6 0 -10 -71 -11 -193 0 -180 -5 -276 -20
-423 -12 -124 -14 -120 56 -140 49 -14 65 -24 92 -59 56 -73 118 -103 263
-129 47 -9 110 -20 115 -21 3 -1 32 -4 65 -9 33 -4 71 -9 85 -11 14 -2 75 -7
135 -10 103 -5 194 -12 240 -20 213 -34 295 -80 347 -193 35 -76 26 -189 -20
-261 -22 -35 -78 -91 -90 -91 -5 0 -15 -6 -21 -13 -16 -20 -88 -39 -146 -38
-66 0 -222 41 -339 88 -50 20 -95 39 -101 43 -8 6 -72 29 -95 35 -3 1 -17 7
-32 13 -26 11 -183 60 -215 67 -10 2 -54 13 -97 24 -109 26 -173 22 -234 -16
-36 -22 -54 -28 -70 -22 -12 5 -39 10 -59 11 l-38 3 -33 -95 c-18 -52 -37
-108 -42 -123 -5 -16 -14 -35 -21 -43 -6 -8 -8 -14 -4 -14 4 0 0 -11 -9 -25
-9 -13 -16 -30 -16 -37 0 -18 -166 -353 -206 -416 -19 -29 -34 -55 -34 -57 0
-23 -266 -405 -335 -481 -5 -6 -32 -37 -60 -70 -109 -127 -290 -311 -390 -395
-22 -19 -42 -36 -45 -40 -11 -12 -197 -158 -240 -188 -93 -65 -270 -182 -285
-187 -20 -8 -19 -26 5 -83 19 -43 20 -51 7 -101 -8 -30 -13 -73 -11 -95 7 -62
141 -323 250 -485 54 -80 119 -178 146 -217 75 -112 119 -216 121 -282 2 -117
-65 -226 -171 -278 -108 -53 -247 -30 -336 55 -48 47 -96 143 -145 296 -21 67
-55 173 -76 236 -61 191 -162 418 -208 469 -12 13 -50 37 -84 53 -35 15 -63
33 -63 38 0 6 -11 28 -25 50 -27 42 -30 43 -105 15 -131 -48 -429 -130 -550
-151 -25 -4 -47 -8 -50 -9 -4 -1 -62 -12 -110 -20 -8 -1 -44 -6 -80 -10 -36
-4 -73 -9 -84 -11 -66 -12 -215 -18 -441 -18 -280 1 -398 9 -590 40 -16 3 -43
7 -60 10 -16 2 -64 12 -105 20 -41 9 -83 17 -92 19 -75 16 -307 82 -413 119
-71 24 -132 43 -135 41 -3 -2 -18 -28 -34 -59 -23 -44 -36 -58 -65 -67 -82
-27 -96 -43 -175 -195 -62 -117 -146 -338 -162 -422 -10 -53 -84 -263 -118
-333 -38 -79 -89 -140 -137 -161 -16 -7 -29 -16 -29 -20 0 -10 -88 -22 -144
-20 -92 5 -194 71 -238 155 -18 33 -23 59 -23 122 0 76 3 85 47 175 26 52 83
147 127 210 103 149 186 278 228 360 19 36 38 72 43 80 27 44 67 149 69 178 1
18 -5 58 -13 88 -14 53 -13 57 10 110 33 74 26 95 -44 135 -76 43 -155 96
-288 195 -294 218 -581 504 -785 779 -24 33 -46 62 -49 65 -12 11 -179 267
-205 315 -15 28 -31 55 -35 60 -24 29 -175 349 -220 465 -29 74 -56 144 -60
155 -5 11 -14 37 -20 58 -13 41 -20 43 -100 28 -38 -8 -51 -6 -92 16 -73 38
-134 39 -268 3 -63 -17 -124 -33 -134 -35 -47 -11 -163 -53 -311 -112 -207
-83 -298 -108 -400 -107 -93 0 -150 23 -208 81 -57 56 -80 115 -83 210 -2 45
1 85 6 88 6 4 10 14 10 23 1 28 68 111 116 141 37 24 113 49 195 66 48 10 154
19 343 30 59 4 121 11 136 15 16 5 31 6 33 4 5 -6 296 52 331 66 14 5 53 37
86 72 51 52 72 66 118 79 33 9 56 22 54 28 -1 7 -5 38 -7 69 -3 31 -7 67 -9
79 -9 43 -18 242 -19 383 -1 214 13 407 42 590 6 36 13 83 16 105 4 22 15 81
26 130 11 50 22 98 24 107 29 132 109 379 176 546 53 131 172 377 228 470 17
29 31 55 31 57 0 2 25 44 56 92 l57 87 -46 41 c-37 32 -49 50 -57 88 -14 67
-42 118 -83 153 -125 108 -306 230 -472 320 -215 115 -322 200 -365 288 -62
128 -6 309 115 374 50 26 133 39 194 30 119 -19 202 -80 401 -297 155 -170
230 -241 385 -366 62 -50 130 -74 198 -68 41 3 56 0 72 -14 11 -10 33 -26 49
-36 l28 -19 100 99 c55 54 105 103 111 108 121 106 167 144 246 205 355 274
785 499 1219 635 149 47 423 109 567 130 23 3 50 7 62 9 12 3 53 8 90 11 37 4
78 8 91 9 30 3 30 3 35 68 4 54 11 71 45 107 7 7 22 32 34 55 19 36 22 57 22
171 0 199 -7 270 -48 520 -32 194 -31 380 2 445 46 89 114 144 206 165 49 12
62 12 136 -1z"/>
<path d="M7050 10496 c-3 -2 -25 -6 -50 -9 -92 -11 -295 -57 -450 -104 -310
-92 -703 -294 -959 -493 -119 -92 -291 -245 -291 -259 0 -3 83 -64 185 -136
101 -71 195 -138 207 -147 19 -14 533 -380 588 -418 8 -6 53 -38 100 -71 174
-125 258 -178 300 -189 112 -30 230 13 292 108 21 32 29 50 44 107 7 29 14 92
19 195 3 63 8 149 10 190 3 41 7 118 10 170 14 247 16 290 20 355 2 39 7 113
10 165 5 91 14 250 20 355 2 28 4 79 6 115 l3 65 -30 3 c-16 2 -32 1 -34 -2z"/>
<path d="M7874 10404 c12 -210 22 -380 32 -564 3 -63 7 -140 9 -170 2 -30 7
-107 10 -170 3 -63 8 -144 10 -180 3 -36 7 -114 10 -175 12 -245 17 -281 46
-335 67 -127 215 -178 347 -120 44 20 63 33 467 320 257 182 314 222 366 259
350 246 499 354 499 360 0 14 -100 109 -184 174 -28 23 -53 44 -56 47 -7 10
-175 130 -240 172 -241 156 -503 279 -770 361 -121 37 -294 80 -370 92 -25 4
-54 9 -65 12 -11 2 -42 6 -69 10 l-48 6 6 -99z"/>
<path d="M4788 8983 c-154 -261 -287 -601 -353 -905 -18 -84 -31 -156 -41
-227 -3 -25 -8 -57 -10 -71 -23 -150 -23 -661 0 -698 3 -6 58 6 123 25 65 18
330 95 588 169 259 75 524 151 590 170 66 20 127 37 135 39 119 27 208 87 250
168 25 50 29 68 27 125 -5 112 -34 157 -197 302 -46 41 -105 93 -130 116 -25
22 -62 56 -84 75 -21 19 -48 43 -60 54 -69 62 -195 174 -291 260 -177 158
-267 239 -291 260 -12 12 -53 48 -90 80 -36 33 -80 72 -96 88 -17 15 -31 27
-33 27 -1 0 -18 -26 -37 -57z"/>
<path d="M10100 8997 c-25 -24 -101 -92 -170 -152 -69 -61 -127 -113 -130
-116 -3 -3 -50 -46 -105 -94 -55 -49 -105 -94 -111 -99 -11 -12 -35 -32 -359
-322 -252 -225 -296 -269 -320 -319 -34 -73 -26 -207 17 -261 36 -46 78 -79
124 -101 42 -19 364 -116 589 -178 28 -7 91 -25 140 -40 50 -15 97 -28 105
-30 8 -2 71 -20 140 -40 69 -20 154 -45 190 -55 36 -10 138 -40 228 -66 89
-26 165 -44 169 -40 4 4 7 118 7 254 1 313 -8 423 -59 687 -42 218 -160 556
-272 780 -44 87 -122 223 -132 229 -4 3 -27 -14 -51 -37z"/>
<path d="M7093 7709 c-146 -183 -151 -190 -142 -222 8 -28 83 -350 97 -415 3
-17 27 -34 101 -69 53 -25 152 -73 220 -105 l124 -60 41 20 c23 12 120 59 217
106 l176 85 22 93 c12 51 28 118 36 148 7 30 17 73 21 95 4 22 9 45 10 50 2 6
7 27 13 47 l9 38 -152 190 -151 190 -245 -1 -245 0 -152 -190z"/>
<path d="M8753 6600 c-121 -29 -204 -142 -199 -271 2 -54 15 -94 86 -264 45
-110 93 -225 105 -255 76 -189 410 -991 424 -1018 l17 -33 104 73 c58 41 114
81 125 90 11 9 49 40 85 69 78 63 317 300 387 384 181 218 355 493 457 725 16
36 34 79 42 95 38 85 53 139 42 146 -6 4 -36 11 -67 15 -31 4 -58 8 -61 9 -5
1 -80 15 -110 20 -8 1 -37 6 -63 9 -27 4 -58 9 -70 12 -41 7 -202 36 -227 39
-14 2 -41 6 -60 10 -34 5 -115 19 -175 29 -16 3 -41 8 -55 10 -14 3 -43 8 -65
11 -22 3 -89 14 -150 25 -60 11 -126 22 -145 25 -19 3 -60 10 -90 15 -30 5
-73 12 -95 15 -22 4 -47 8 -56 11 -31 9 -155 12 -186 4z"/>
<path d="M6005 6584 c-38 -7 -86 -15 -105 -19 -37 -6 -92 -15 -125 -21 -11 -2
-40 -7 -65 -10 -25 -3 -47 -8 -50 -9 -5 -3 -49 -10 -115 -20 -11 -1 -76 -13
-145 -25 -69 -12 -138 -24 -155 -27 -16 -2 -95 -15 -175 -29 -80 -13 -161 -27
-180 -30 -19 -3 -42 -7 -50 -9 -8 -2 -35 -7 -60 -10 -25 -4 -86 -14 -137 -23
l-91 -17 34 -89 c117 -304 319 -635 544 -897 56 -65 200 -211 281 -285 133
-121 384 -303 398 -288 5 5 34 72 66 149 31 77 63 154 70 170 8 17 63 152 125
300 61 149 115 279 119 290 69 154 213 516 231 581 35 121 -33 260 -154 315
-49 22 -154 23 -261 3z"/>
<path d="M7399 5947 c-57 -22 -98 -56 -134 -111 -26 -42 -188 -331 -322 -576
-16 -30 -61 -111 -100 -180 -38 -69 -87 -156 -108 -195 -21 -38 -85 -154 -141
-257 -57 -102 -104 -188 -104 -191 0 -3 8 -7 18 -10 9 -2 58 -17 107 -31 186
-55 398 -96 590 -114 102 -9 487 -9 585 0 171 16 384 56 535 99 38 12 84 24
100 29 83 22 82 12 9 145 -37 66 -79 143 -94 170 -15 28 -39 70 -53 95 -25 45
-204 369 -260 470 -45 83 -72 131 -97 175 -12 22 -39 69 -58 105 -19 36 -46
83 -59 105 -13 22 -32 58 -43 80 -34 68 -93 138 -143 169 -38 23 -61 30 -120
33 -45 2 -86 -2 -108 -10z"/>
</g>
</svg>
